<svg width="24" height="24" viewBox="0 0 24 24" fill="none" xmlns="http://www.w3.org/2000/svg">
<path fill-rule="evenodd" clip-rule="evenodd" d="M11.6468 4.08063C7.58133 4.08063 4.28595 7.376 4.28595 11.4414C4.28595 15.507 7.58143 18.8032 11.6468 18.8032C13.5655 18.8032 15.3127 18.069 16.6229 16.8661C16.6272 16.8616 16.6316 16.8571 16.636 16.8526C16.6537 16.8349 16.672 16.8184 16.6909 16.8029C18.1171 15.4603 19.0076 13.5548 19.0076 11.4414C19.0076 7.376 15.7122 4.08063 11.6468 4.08063ZM18.1625 17.3582C19.5824 15.7951 20.4476 13.7193 20.4476 11.4414C20.4476 6.58071 16.5075 2.64062 11.6468 2.64062C6.78604 2.64062 2.84595 6.58071 2.84595 11.4414C2.84595 16.3021 6.78593 20.2432 11.6468 20.2432C13.711 20.2432 15.6092 19.5324 17.1101 18.3423L19.9254 21.1504C20.2069 21.4312 20.6627 21.4306 20.9436 21.149C21.2244 20.8676 21.2239 20.4117 20.9423 20.1309L18.1625 17.3582Z" fill="black" fill-opacity="0.5"/>
</svg>
