<svg width="20" height="20" viewBox="0 0 20 20" fill="none" xmlns="http://www.w3.org/2000/svg">
<path fill-rule="evenodd" clip-rule="evenodd" d="M11.7697 2.39599L12.3789 3.00516C12.6147 3.23933 12.9297 3.36933 13.2647 3.36933H14.1214C15.5056 3.36933 16.6314 4.49516 16.6314 5.87933V6.73516C16.6314 7.06933 16.7614 7.38516 16.9972 7.62266L17.5956 8.22183C18.0697 8.69266 18.3331 9.32183 18.3356 9.99266C18.3381 10.6635 18.0789 11.2943 17.6064 11.7702L16.9956 12.3793C16.7614 12.6152 16.6314 12.9293 16.6314 13.2643V14.1218C16.6314 15.5052 15.5056 16.631 14.1222 16.631H13.2631C12.9331 16.631 12.6106 16.7643 12.3764 16.9968L11.7781 17.5952C11.2889 18.0877 10.6439 18.3343 9.9989 18.3343C9.35973 18.3343 8.72056 18.0927 8.23139 17.6077C8.22473 17.601 8.21806 17.5943 8.21139 17.5868L7.61973 16.996C7.38389 16.7618 7.06889 16.6318 6.73389 16.631H5.87889C4.49473 16.631 3.36973 15.5052 3.36973 14.1218V13.2627C3.36973 12.9277 3.23889 12.6135 3.00389 12.3768L2.40473 11.7785C1.43139 10.8102 1.41973 9.23349 2.37556 8.25016L2.39806 8.22766L3.00473 7.61933C3.23889 7.38349 3.36973 7.06766 3.36973 6.73349V5.87933C3.36973 4.49599 4.49473 3.37016 5.87806 3.36933H6.73639C7.07056 3.36933 7.38556 3.23849 7.62473 3.00266L8.22056 2.40516C9.19473 1.42433 10.7872 1.41933 11.7697 2.39599ZM9.1064 3.28766L8.50723 3.88849C8.0289 4.36099 7.40139 4.61933 6.73639 4.61933H5.87889C5.18473 4.62016 4.61973 5.18516 4.61973 5.87933V6.73349C4.61973 7.40099 4.36056 8.02849 3.89056 8.50183L3.29889 9.09433C3.29306 9.10099 3.28723 9.10599 3.28139 9.11183C2.79223 9.60433 2.79473 10.4035 3.28723 10.8927L3.88889 11.4943C4.36056 11.9677 4.61973 12.5952 4.61973 13.2627V14.1218C4.61973 14.816 5.18389 15.381 5.87889 15.381H6.73473C7.40306 15.3818 8.03056 15.641 8.50306 16.1118L9.1039 16.711L9.12056 16.7293C9.61223 17.2093 10.4039 17.2035 10.8922 16.7127L11.4939 16.1127C11.9606 15.6468 12.6056 15.381 13.2631 15.381H14.1214C14.8164 15.381 15.3814 14.816 15.3814 14.1218V13.2643C15.3814 12.5968 15.6397 11.9693 16.1114 11.4968L16.7114 10.896C16.9556 10.651 17.0864 10.3335 17.0856 9.99683C17.0847 9.66099 16.9522 9.34516 16.7131 9.10683L16.1122 8.50516C15.6397 8.02933 15.3814 7.40266 15.3814 6.73516V5.87933C15.3814 5.18433 14.8164 4.61933 14.1214 4.61933H13.2647C12.5972 4.61933 11.9697 4.36016 11.4972 3.89099L10.8956 3.28849C10.3947 2.79266 9.59556 2.79516 9.1064 3.28766ZM12.0861 11.2491C12.5469 11.2491 12.9194 11.6216 12.9194 12.0824C12.9194 12.5432 12.5469 12.9157 12.0861 12.9157C11.6252 12.9157 11.2486 12.5432 11.2486 12.0824C11.2486 11.6216 11.6177 11.2491 12.0786 11.2491H12.0861ZM12.5842 7.41683C12.8284 7.66099 12.8284 8.05683 12.5842 8.30099L8.30006 12.5843C8.17839 12.7068 8.01839 12.7677 7.8584 12.7677C7.69839 12.7677 7.53839 12.7068 7.41673 12.5843C7.17256 12.3402 7.17256 11.9452 7.41673 11.701L11.7001 7.41683C11.9442 7.17266 12.3401 7.17266 12.5842 7.41683ZM7.91939 7.08241C8.38023 7.08241 8.75273 7.45491 8.75273 7.91574C8.75273 8.37658 8.38023 8.74908 7.91939 8.74908C7.45856 8.74908 7.08189 8.37658 7.08189 7.91574C7.08189 7.45491 7.45106 7.08241 7.91189 7.08241H7.91939Z" fill="black" fill-opacity="0.87"/>
</svg>
